<svg width="64" height="64" viewBox="0 0 64 64" fill="none" xmlns="http://www.w3.org/2000/svg">
<path d="M34.4401 41.3334C34.2409 41.3341 34.044 41.2901 33.8641 41.2047C33.6841 41.1193 33.5255 40.9947 33.4001 40.84L26.9601 32.84C26.7639 32.6015 26.6567 32.3022 26.6567 31.9934C26.6567 31.6845 26.7639 31.3853 26.9601 31.1467L33.6267 23.1467C33.853 22.8744 34.1783 22.7032 34.5308 22.6707C34.8834 22.6382 35.2344 22.7471 35.5067 22.9734C35.779 23.1997 35.9502 23.5249 35.9827 23.8775C36.0153 24.23 35.9064 24.5811 35.6801 24.8534L29.7201 32L35.4801 39.1467C35.6431 39.3424 35.7467 39.5807 35.7785 39.8335C35.8103 40.0862 35.7691 40.3428 35.6597 40.5728C35.5503 40.8028 35.3773 40.9967 35.1611 41.1315C34.945 41.2663 34.6948 41.3364 34.4401 41.3334Z" fill="white"/>
<rect x="0.5" y="0.5" width="63" height="63" rx="31.5" stroke="white" stroke-opacity="0.08"/>
</svg>
