<svg width="64" height="64" viewBox="0 0 64 64" fill="none" xmlns="http://www.w3.org/2000/svg">
<path d="M29.56 22.6666C29.7592 22.6659 29.956 22.7099 30.136 22.7953C30.316 22.8807 30.4745 23.0053 30.6 23.16L37.04 31.16C37.2361 31.3985 37.3433 31.6978 37.3433 32.0066C37.3433 32.3155 37.2361 32.6147 37.04 32.8533L30.3733 40.8533C30.147 41.1256 29.8218 41.2968 29.4692 41.3293C29.1167 41.3618 28.7656 41.2529 28.4933 41.0266C28.2211 40.8003 28.0498 40.4751 28.0173 40.1225C27.9848 39.77 28.0937 39.4189 28.32 39.1466L34.28 32L28.52 24.8533C28.357 24.6576 28.2534 24.4193 28.2216 24.1665C28.1897 23.9138 28.2309 23.6572 28.3403 23.4272C28.4498 23.1972 28.6228 23.0033 28.8389 22.8685C29.0551 22.7337 29.3053 22.6636 29.56 22.6666Z" fill="white"/>
<rect x="63.5" y="63.5" width="63" height="63" rx="31.5" transform="rotate(-180 63.5 63.5)" stroke="white" stroke-opacity="0.08"/>
</svg>
